# xmcd
#
# Track frame offsets: 
#        150
#        10597
#        26417
#        37567
#        48930
#        61792
#        75035
#        87192
#        104512
#        118777
#        133042
#        150500
#        163132
#        176607
#
# Disc length: 2514 seconds
#
# Revision: 1
# Processed by: cddbd v1.4PL0 Copyright (c) Steve Scherf et al.
# Submitted via: ExactAudioCopy v0.90b2
#
DISCID=9409d00e
DTITLE=Dusty Springfield - Dusty In Memphis
DYEAR=1968
DGENRE=Easy Listening
TTITLE0=Just A Little Lovin'
TTITLE1=So Much Love
TTITLE2=Son Of A Preacher Man
TTITLE3=In The Land Of Make Believe
TTITLE4=Don't Forget About Me
TTITLE5=Breakfast In Bed
TTITLE6=Just One Smile
TTITLE7=The Windmills Of Your Mind
TTITLE8=I Don't Want To Hear It Anymore
TTITLE9=No Easy Way Down
TTITLE10=I Can't Make It Alone
TTITLE11=Willie And Laura Mae Jones
TTITLE12=That Old Sweet Roll (Hi-De-Ho)
TTITLE13=What Do You Do When Love Dies?
EXTD=
EXTT0=
EXTT1=
EXTT2=
EXTT3=
EXTT4=
EXTT5=
EXTT6=
EXTT7=
EXTT8=
EXTT9=
EXTT10=
EXTT11=
EXTT12=
EXTT13=
PLAYORDER=
